<?xml version="1.0" encoding="utf-8"?>
<!-- Generator: Adobe Illustrator 16.0.0, SVG Export Plug-In . SVG Version: 6.00 Build 0)  -->
<!DOCTYPE svg PUBLIC "-//W3C//DTD SVG 1.1//EN" "http://www.w3.org/Graphics/SVG/1.1/DTD/svg11.dtd">
<svg version="1.1" id="Layer_1" xmlns="http://www.w3.org/2000/svg" xmlns:xlink="http://www.w3.org/1999/xlink" x="0px" y="0px"
	 width="512px" height="512px" viewBox="0 0 512 512" enable-background="new 0 0 512 512" xml:space="preserve">
<g>
	<path fill="#FFFFFF" stroke="#FFFFFF" stroke-width="7" stroke-miterlimit="10" d="M84.786,123.579v136.794
		c0,2.799,1.114,5.484,3.094,7.467l166.037,166.041c15.129,15.125,39.746,15.125,54.871,0l125.097-125.102
		c7.305-7.303,11.326-17.047,11.33-27.432v-0.002c0-10.387-4.025-20.13-11.334-27.438L267.843,87.873
		c-1.979-1.98-4.667-3.094-7.467-3.094l-136.793-0.003C102.19,84.779,84.786,102.187,84.786,123.579z M256.004,105.898
		l162.945,162.946c3.318,3.317,5.146,7.76,5.146,12.502c0,4.746-1.826,9.186-5.143,12.502L293.854,418.948
		c-6.893,6.892-18.111,6.892-25.006,0L105.906,256V123.579c0-9.749,7.931-17.683,17.68-17.683L256.004,105.898z"/>
	<path fill="#FFFFFF" stroke="#FFFFFF" stroke-width="5" stroke-miterlimit="10" d="M167.619,197.777
		c0,8.058,3.14,15.633,8.837,21.33c5.695,5.698,13.271,8.835,21.328,8.835c8.057,0,15.632-3.137,21.33-8.835
		c5.697-5.697,8.835-13.272,8.835-21.33c0-8.055-3.138-15.63-8.835-21.327c-5.698-5.698-13.273-8.835-21.33-8.835
		c-8.058,0-15.633,3.138-21.328,8.833C170.759,182.145,167.619,189.72,167.619,197.777z M205.536,190.025
		c2.072,2.07,3.213,4.825,3.213,7.752c0,2.93-1.141,5.683-3.213,7.753c-2.07,2.072-4.824,3.212-7.752,3.212
		c-2.928,0-5.683-1.14-7.753-3.212c-2.072-2.07-3.212-4.825-3.212-7.753c0-2.927,1.14-5.68,3.212-7.752
		c2.07-2.073,4.825-3.212,7.753-3.212C200.712,186.813,203.466,187.955,205.536,190.025z"/>
</g>
</svg>
