<?xml version="1.0" encoding="utf-8"?>
<!-- Generator: Adobe Illustrator 16.0.0, SVG Export Plug-In . SVG Version: 6.00 Build 0)  -->
<!DOCTYPE svg PUBLIC "-//W3C//DTD SVG 1.1//EN" "http://www.w3.org/Graphics/SVG/1.1/DTD/svg11.dtd">
<svg version="1.1" id="Layer_1" xmlns="http://www.w3.org/2000/svg" xmlns:xlink="http://www.w3.org/1999/xlink" x="0px" y="0px"
	 width="120px" height="120px" viewBox="0 0 120 120" enable-background="new 0 0 120 120" xml:space="preserve">
<g>
	<path fill="none" stroke="#999999" stroke-width="10" stroke-miterlimit="10" d="M86.051,53.195
		c0,17.76-14.397,32.163-32.161,32.163S21.723,70.955,21.723,53.195c0-17.764,14.403-32.164,32.167-32.164
		C71.653,21.032,86.051,35.431,86.051,53.195z"/>
	<path fill="#999999" d="M101.973,94.07c1.5,1.5,1.936,2.652,0.514,4.068l-4.617,4.616c-1.412,1.418-3.428,1.853-4.932,0.349
		L71.719,81.883c-1.496-1.5-2.369-4.814-0.953-6.229l4.615-4.614c1.42-1.419,3.868,0.31,5.373,1.813L101.973,94.07z"/>
</g>
</svg>
