<?xml version="1.0" encoding="utf-8"?>
<!-- Generator: Adobe Illustrator 16.0.0, SVG Export Plug-In . SVG Version: 6.00 Build 0)  -->
<!DOCTYPE svg PUBLIC "-//W3C//DTD SVG 1.1//EN" "http://www.w3.org/Graphics/SVG/1.1/DTD/svg11.dtd">
<svg version="1.1" id="line_Icons" xmlns="http://www.w3.org/2000/svg" xmlns:xlink="http://www.w3.org/1999/xlink" x="0px" y="0px"
	 width="512px" height="512px" viewBox="0 0 512 512" enable-background="new 0 0 512 512" xml:space="preserve">
<path stroke="#000000" stroke-width="9" stroke-linecap="round" stroke-miterlimit="10" d="M271.334,460.5c0,5.522-4.479,10-10,10
	h-10.667c-5.522,0-10-4.478-10-10v-366c0-5.523,4.478-10,10-10h10.667c5.521,0,10,4.477,10,10V460.5z"/>
<g>
	<polygon fill="#FFFFFF" points="114.836,172.49 114.836,289.776 374.732,289.776 430.84,231.149 374.732,172.49 	"/>
	<path stroke="#000000" stroke-width="11" stroke-miterlimit="10" d="M452.62,222.95l-66.487-69.462
		c-1.639-1.711-3.733-2.654-5.902-2.655H107.958c-4.976,0-9.008,4.853-9.008,10.836v138.928c0,5.985,4.032,10.837,9.008,10.837
		H380.24c2.168-0.002,4.265-0.944,5.9-2.654l66.479-69.465c0.316-0.332,0.615-0.692,0.892-1.075
		C456.774,233.721,456.374,226.876,452.62,222.95z M374.649,289.791H114.752V172.508h259.897l56.108,58.657L374.649,289.791z"/>
</g>
</svg>
