<?xml version="1.0" encoding="utf-8"?>
<!-- Generator: Adobe Illustrator 16.0.0, SVG Export Plug-In . SVG Version: 6.00 Build 0)  -->
<!DOCTYPE svg PUBLIC "-//W3C//DTD SVG 1.1//EN" "http://www.w3.org/Graphics/SVG/1.1/DTD/svg11.dtd">
<svg version="1.1" id="line_Icons" xmlns="http://www.w3.org/2000/svg" xmlns:xlink="http://www.w3.org/1999/xlink" x="0px" y="0px"
	 width="512px" height="512px" viewBox="0 0 512 512" enable-background="new 0 0 512 512" xml:space="preserve">
<g>
	<path fill="#FFFFFF" stroke="#FFFFFF" stroke-width="9" stroke-linecap="round" stroke-miterlimit="10" d="M271.334,94.5
		c0-5.523-4.479-10-10-10h-10.667c-5.522,0-10,4.477-10,10v56.33h30.667V94.5z"/>
	<path fill="#FFFFFF" stroke="#FFFFFF" stroke-width="9" stroke-linecap="round" stroke-miterlimit="10" d="M240.667,460.5
		c0,5.522,4.478,10,10,10h10.667c5.521,0,10-4.478,10-10V311.43h-30.667V460.5z"/>
</g>
<g>
	<path fill="#FFFFFF" stroke="#FFFFFF" stroke-width="11" stroke-miterlimit="10" d="M452.287,222.95L385.8,153.487
		c-1.639-1.711-3.731-2.654-5.9-2.655H107.625c-4.976,0-9.008,4.853-9.008,10.836v138.929c0,5.984,4.032,10.836,9.008,10.836
		h272.282c2.168-0.002,4.265-0.943,5.898-2.654l66.479-69.464c0.314-0.332,0.615-0.692,0.892-1.075
		C456.441,233.721,456.041,226.875,452.287,222.95z M374.316,289.791H114.419V172.507h259.897l56.106,58.657L374.316,289.791z"/>
</g>
</svg>
